HIERARCHY
ROOT Hips
{
	OFFSET 0.000000 0.000000 0.000000
	CHANNELS 6 Xposition Yposition Zposition Zrotation Yrotation Xrotation 
	JOINT LHipJoint
	{
		OFFSET 0.000000 0.000000 0.000000
		CHANNELS 3 Zrotation Yrotation Xrotation
		JOINT LeftUpLeg
		{
			OFFSET 1.363060 -1.794630 0.839290
			CHANNELS 3 Zrotation Yrotation Xrotation
			JOINT LeftLeg
			{
				OFFSET 2.448110 -6.726130 0.000000
				CHANNELS 3 Zrotation Yrotation Xrotation
				JOINT LeftFoot
				{
					OFFSET 2.562200 -7.039590 0.000000
					CHANNELS 3 Zrotation Yrotation Xrotation
					JOINT LeftToeBase
					{
						OFFSET 0.157640 -0.433110 2.322550
						CHANNELS 3 Zrotation Yrotation Xrotation
						End Site
						{
							OFFSET 0.000000 0.000000 0.000000
						}
					}
				}
			}
		}
	}
	JOINT RHipJoint
	{
		OFFSET 0.000000 0.000000 0.000000
		CHANNELS 3 Zrotation Yrotation Xrotation
		JOINT RightUpLeg
		{
			OFFSET -1.305520 -1.794630 0.839290
			CHANNELS 3 Zrotation Yrotation Xrotation
			JOINT RightLeg
			{
				OFFSET -2.542530 -6.985550 0.000000
				CHANNELS 3 Zrotation Yrotation Xrotation
				JOINT RightFoot
				{
					OFFSET -2.568260 -7.056230 0.000000
					CHANNELS 3 Zrotation Yrotation Xrotation
					JOINT RightToeBase
					{
						OFFSET -0.164730 -0.452590 2.363150
						CHANNELS 3 Zrotation Yrotation Xrotation
						End Site
						{
							OFFSET 0.000000 0.000000 0.000000
						}
					}
				}
			}
		}
	}
	JOINT LowerBack
	{
		OFFSET 0.000000 0.000000 0.000000
		CHANNELS 3 Zrotation Yrotation Xrotation
		JOINT Spine
		{
			OFFSET 0.028270 2.035590 -0.193380
			CHANNELS 3 Zrotation Yrotation Xrotation
			JOINT Spine1
			{
				OFFSET 0.056720 2.048850 -0.042750
				CHANNELS 3 Zrotation Yrotation Xrotation
				JOINT Neck
				{
					OFFSET 0.000000 0.000000 0.000000
					CHANNELS 3 Zrotation Yrotation Xrotation
					JOINT Neck1
					{
						OFFSET -0.054170 1.746240 0.172020
						CHANNELS 3 Zrotation Yrotation Xrotation
						JOINT Head
						{
							OFFSET 0.104070 1.761360 -0.123970
							CHANNELS 3 Zrotation Yrotation Xrotation
							End Site
							{
								OFFSET 0.000000 0.000000 0.000000
							}
						}
					}
				}
				JOINT LeftShoulder
				{
					OFFSET 0.000000 0.000000 0.000000
					CHANNELS 3 Zrotation Yrotation Xrotation
					JOINT LeftArm
					{
						OFFSET 3.362410 1.200890 -0.311210
						CHANNELS 3 Zrotation Yrotation Xrotation
						JOINT LeftForeArm
						{
							OFFSET 4.983000 -0.000000 -0.000000
							CHANNELS 3 Zrotation Yrotation Xrotation
							JOINT LeftHand
							{
								OFFSET 3.483560 -0.000000 -0.000000
								CHANNELS 3 Zrotation Yrotation Xrotation
								JOINT LeftFingerBase
								{
									OFFSET 0.000000 0.000000 0.000000
									CHANNELS 3 Zrotation Yrotation Xrotation
									JOINT LeftHandIndex1
									{
										OFFSET 0.715260 -0.000000 -0.000000
										CHANNELS 3 Zrotation Yrotation Xrotation
										End Site
										{
											OFFSET 0.000000 0.000000 0.000000
										}
									}
								}
								JOINT LThumb
								{
									OFFSET 0.000000 0.000000 0.000000
									CHANNELS 3 Zrotation Yrotation Xrotation
									End Site
									{
										OFFSET 0.000000 0.000000 0.000000
									}
								}
							}
						}
					}
				}
				JOINT RightShoulder
				{
					OFFSET 0.000000 0.000000 0.000000
					CHANNELS 3 Zrotation Yrotation Xrotation
					JOINT RightArm
					{
						OFFSET -3.136600 1.374050 -0.404650
						CHANNELS 3 Zrotation Yrotation Xrotation
						JOINT RightForeArm
						{
							OFFSET -5.241900 -0.000000 -0.000000
							CHANNELS 3 Zrotation Yrotation Xrotation
							JOINT RightHand
							{
								OFFSET -3.444170 -0.000000 -0.000000
								CHANNELS 3 Zrotation Yrotation Xrotation
								JOINT RightFingerBase
								{
									OFFSET 0.000000 0.000000 0.000000
									CHANNELS 3 Zrotation Yrotation Xrotation
									JOINT RightHandIndex1
									{
										OFFSET -0.622530 -0.000000 -0.000000
										CHANNELS 3 Zrotation Yrotation Xrotation
										End Site
										{
											OFFSET 0.000000 0.000000 0.000000
										}
									}
								}
								JOINT RThumb
								{
									OFFSET 0.000000 0.000000 0.000000
									CHANNELS 3 Zrotation Yrotation Xrotation
									End Site
									{
										OFFSET 0.000000 0.000000 0.000000
									}
								}
							}
						}
					}
				}
			}
		}
	}
}
MOTION
Frames: 9
Frame Time: 0.008333
-1.339007 17.470187 1.880984 -72.606248 -70.048638 91.840760 -8.890903 -4.715214 -4.577616 9.184310 -4.699747 -22.530776 0.227319 0.196114 12.890679 1.438376 8.220363 -3.464455 0.707600 0.000001 -38.348800 6.201084 2.957209 5.747689 -2.615451 12.084830 -96.810167 4.208596 3.099436 -11.685395 0.552728 0.426063 14.511994 -0.930000 0.000000 -74.903399 -1.157600 -1.137664 5.720589 -2.339725 -1.147099 -2.252755 -11.281542 -1.384948 -1.982361 7.883651 5.206077 2.079790 -6.115698 -0.464209 1.999551 0.000000 0.000000 0.000000 -6.069662 -13.697503 4.560284 -48.185483 -20.953395 9.601413 -3.258192 -28.830807 -0.006017 4.145760 -4.175929 -0.160464 -0.083829 0.191209 0.000000 0.000000 0.000000 0.000000 0.000000 0.000000 0.000000 24.968182 3.797634 2.059376 64.937138 18.046213 3.163496 2.302812 20.264458 0.007724 1.459480 10.318602 0.132956 0.015814 -0.167262 0.000000 0.000000 0.000000 0.000000 0.000000 0.000000 0.000000 
-1.336888 17.469174 1.869869 -72.935237 -70.127812 92.334127 -8.811859 -4.707282 -4.624881 9.095921 -4.550507 -22.753731 0.201780 0.194131 12.971173 1.430734 8.165226 -3.453270 0.705200 0.000000 -38.387200 6.264021 2.899509 5.770989 -2.382440 12.616880 -97.116532 4.236398 2.988597 -10.882113 0.476629 -0.075797 14.982909 -1.167700 -0.000000 -74.577900 -1.331425 -1.090748 5.753681 -2.386859 -1.097147 -2.242841 -11.283608 -1.335576 -1.954192 7.769115 5.334749 2.157125 -6.137733 -0.465221 2.009351 0.000000 0.000000 0.000000 -6.190610 -13.636284 4.571083 -48.072140 -20.844879 9.369939 -3.290924 -28.226597 -0.005806 4.090159 -4.085757 -0.154979 -0.082742 0.187470 0.000000 0.000000 0.000000 0.000000 0.000000 0.000000 0.000000 24.955310 3.874732 2.019290 65.055394 18.322355 3.084824 2.283448 20.141806 0.007571 1.471320 10.351207 0.134551 0.014742 -0.167560 0.000000 0.000000 0.000000 0.000000 0.000000 0.000000 0.000000 
-1.335188 17.468588 1.858779 -73.052710 -70.217808 92.614290 -8.736725 -4.694780 -4.657035 8.986494 -4.477683 -22.970177 0.178328 0.188066 13.026876 1.424563 8.127039 -3.424342 0.707300 0.000000 -38.410400 6.326819 2.846480 5.776217 -2.159727 13.066288 -97.294041 4.253546 2.868548 -10.107492 0.418176 -0.469351 15.505421 -1.360200 -0.000001 -74.240600 -1.510248 -1.064145 5.790810 -2.433095 -1.067351 -2.229895 -11.280374 -1.305779 -1.923963 7.653008 5.443073 2.231144 -6.157044 -0.466054 2.018785 0.000000 0.000000 0.000000 -6.299056 -13.592003 4.581278 -47.989642 -20.713643 9.087072 -3.323797 -27.552085 -0.005654 4.045232 -3.998468 -0.149896 -0.081379 0.183748 0.000000 0.000000 0.000000 0.000000 0.000000 0.000000 0.000000 24.925184 3.920669 1.974043 65.195899 18.597328 3.044028 2.262403 20.050879 0.007407 1.489055 10.375953 0.136546 0.013563 -0.167616 0.000000 0.000000 0.000000 0.000000 0.000000 0.000000 0.000000 
-1.334233 17.468392 1.847571 -72.925987 -70.318705 92.657542 -8.664564 -4.677401 -4.670561 8.856977 -4.494728 -23.188214 0.157928 0.176640 13.054808 1.420805 8.112567 -3.375873 0.714900 0.000000 -38.417100 6.388669 2.799867 5.766171 -1.966042 13.415143 -97.333686 4.259336 2.749112 -9.413837 0.383588 -0.716742 16.032204 -1.486100 0.000000 -73.940900 -1.696635 -1.058556 5.825549 -2.478849 -1.058439 -2.215085 -11.271285 -1.296258 -1.892173 7.541156 5.526585 2.301318 -6.172749 -0.466689 2.028010 0.000000 0.000000 0.000000 -6.386221 -13.571472 4.589446 -47.948633 -20.556393 8.748613 -3.355157 -26.805906 -0.005586 4.019129 -3.918898 -0.145916 -0.079688 0.180107 0.000000 0.000000 0.000000 0.000000 0.000000 0.000000 0.000000 24.880458 3.931403 1.923969 65.357269 18.859913 3.047301 2.239143 20.007211 0.007224 1.511079 10.392024 0.138940 0.012272 -0.167447 0.000000 0.000000 0.000000 0.000000 0.000000 0.000000 0.000000 
-1.333958 17.468263 1.837094 -72.563366 -70.408905 92.470517 -8.605761 -4.662153 -4.665140 8.734852 -4.569641 -23.423134 0.141358 0.161458 13.073126 1.415237 8.090116 -3.318101 0.723600 -0.000001 -38.423200 6.439417 2.756730 5.741972 -1.794060 13.664851 -97.214321 4.258882 2.641992 -8.853134 0.374183 -0.811844 16.524226 -1.538300 0.000000 -73.762800 -1.863202 -1.070420 5.857207 -2.517628 -1.067321 -2.198049 -11.256488 -1.303639 -1.855614 7.429588 5.580387 2.363167 -6.183642 -0.467062 2.036267 0.000000 0.000000 0.000000 -6.471537 -13.554118 4.595347 -47.946072 -20.408920 8.372023 -3.385590 -25.975981 -0.005598 4.014538 -3.849042 -0.143137 -0.077781 0.176655 0.000000 0.000000 0.000000 0.000000 0.000000 0.000000 0.000000 24.810448 3.906483 1.868686 65.532571 19.105150 3.092557 2.215055 20.024783 0.007040 1.538344 10.397385 0.141635 0.010920 -0.167089 0.000000 0.000000 0.000000 0.000000 0.000000 0.000000 0.000000 
-1.335006 17.468395 1.826038 -71.936905 -70.508774 92.040275 -8.547440 -4.641877 -4.638235 8.593533 -4.736652 -23.677731 0.127594 0.139596 13.067945 1.412110 8.091239 -3.243082 0.737700 0.000000 -38.412801 6.489992 2.720239 5.712407 -1.683995 13.803466 -96.966069 4.247533 2.548210 -8.421002 0.391508 -0.735312 16.931461 -1.503200 0.000000 -73.679500 -2.045281 -1.101077 5.872572 -2.557745 -1.094795 -2.182456 -11.235851 -1.329072 -1.818911 7.333923 5.604984 2.421293 -6.190026 -0.467253 2.044827 0.000000 0.000000 0.000000 -6.520387 -13.568771 4.596573 -47.997929 -20.227244 7.942158 -3.411372 -25.081321 -0.005734 4.043246 -3.791062 -0.141862 -0.075471 0.173328 0.000000 0.000000 0.000000 0.000000 0.000000 0.000000 0.000000 24.734898 3.844276 1.809409 65.723869 19.314680 3.190089 2.187845 20.113743 0.006826 1.563802 10.399278 0.144130 0.009458 -0.166599 0.000000 0.000000 0.000000 0.000000 0.000000 0.000000 0.000000 
-1.337184 17.468442 1.815429 -71.099398 -70.593269 91.409145 -8.500948 -4.624355 -4.594216 8.462426 -4.943143 -23.956055 0.116271 0.114098 13.058160 1.405764 8.074017 -3.163341 0.751200 0.000000 -38.407600 6.529657 2.686392 5.676715 -1.616817 13.853067 -96.570760 4.230483 2.474205 -8.135742 0.429896 -0.520693 17.235381 -1.395400 0.000000 -73.775200 -2.212240 -1.143255 5.877340 -2.592180 -1.133905 -2.166722 -11.210250 -1.365286 -1.777889 7.246536 5.591551 2.469287 -6.191566 -0.467236 2.052204 0.000000 0.000000 0.000000 -6.560174 -13.590595 4.593120 -48.090012 -20.049340 7.480357 -3.433470 -24.122502 -0.005960 4.097825 -3.741501 -0.141788 -0.072887 0.170181 0.000000 0.000000 0.000000 0.000000 0.000000 0.000000 0.000000 24.643252 3.742225 1.746573 65.921754 19.498020 3.343269 2.159888 20.272194 0.006599 1.583387 10.402111 0.146124 0.008023 -0.166069 0.000000 0.000000 0.000000 0.000000 0.000000 0.000000 0.000000 
-1.341118 17.468564 1.803978 -70.039462 -70.682596 90.576787 -8.453459 -4.602028 -4.531151 8.315030 -5.220467 -24.257620 0.106215 0.082458 13.030885 1.400651 8.071401 -3.070855 0.768800 -0.000000 -38.396500 6.570402 2.657393 5.643135 -1.622891 13.811621 -96.065350 4.202526 2.416252 -7.967425 0.486179 -0.177225 17.411177 -1.219100 0.000000 -73.953900 -2.400034 -1.197913 5.859171 -2.629544 -1.185011 -2.154500 -11.180263 -1.413031 -1.737049 7.182067 5.553177 2.513500 -6.188857 -0.467083 2.059943 0.000000 0.000000 0.000000 -6.561929 -13.632505 4.584077 -48.231242 -19.848884 6.986309 -3.450301 -23.110883 -0.006303 4.187932 -3.703214 -0.143217 -0.069969 0.167162 0.000000 0.000000 0.000000 0.000000 0.000000 0.000000 0.000000 24.555055 3.611939 1.680191 66.128512 19.626726 3.538539 2.128294 20.514364 0.006332 1.597649 10.406962 0.147620 0.006460 -0.165522 0.000000 0.000000 0.000000 0.000000 0.000000 0.000000 0.000000 
-1.346410 17.468469 1.792660 -68.832793 -70.754719 89.601876 -8.414818 -4.581686 -4.456561 8.174906 -5.511454 -24.574714 0.096215 0.048343 13.002826 1.391096 8.041517 -2.978464 0.783900 0.000000 -38.398600 6.603228 2.629598 5.607230 -1.669766 13.711386 -95.433327 4.168156 2.374899 -7.905458 0.551741 0.241668 17.468334 -1.002900 -0.000000 -74.234700 -2.581332 -1.256689 5.830458 -2.663744 -1.239903 -2.143409 -11.146792 -1.463983 -1.694317 7.130822 5.483438 2.549126 -6.182145 -0.466799 2.066749 0.000000 0.000000 0.000000 -6.551435 -13.679834 4.570012 -48.404783 -19.645640 6.475524 -3.462323 -22.063020 -0.006720 4.300887 -3.668798 -0.145548 -0.066801 0.164274 0.000000 0.000000 0.000000 0.000000 0.000000 0.000000 0.000000 24.460484 3.453284 1.612196 66.334662 19.716823 3.774824 2.095700 20.825785 0.006048 1.601640 10.421898 0.148315 0.004925 -0.165090 0.000000 0.000000 0.000000 0.000000 0.000000 0.000000 0.000000 
